<svg xmlns="http://www.w3.org/2000/svg" viewBox="0 0 48 48">
  <path fill="#4285F4" d="M24 9.5c3.32 0 5.99 1.45 7.96 3.21l5.91-5.91C34.25 3.92 29.5 2 24 2 15.5 2 8.25 6.82 4.5 14.5l7.44 5.82c1.8-4.5 5.99-7.82 12.06-7.82z"/>
  <path fill="#34A853" d="M43.5 24c0-1.5-.2-2.9-.55-4.25H24v8.5h12.1c-.7 3.7-3.1 6.8-6.6 8.9l6.3 4.9c3.8-3.5 6.1-8.5 6.1-14.05z"/>
  <path fill="#FBBC04" d="M12.06 28.32c-.9-.25-1.7-.4-2.6-.4s-1.7.15-2.6.4L4.5 34.18c3.75 7.68 11 12.5 19.5 12.5 5.5 0 10.25-1.92 13.6-5.25l-6.3-4.9c-3.5 2.1-5.9 5.2-6.6 8.9H24v-8.5h-11.94z"/>
  <path fill="#EA4335" d="M24 14.5c3.32 0 5.99 1.45 7.96 3.21l5.91-5.91C34.25 3.92 29.5 2 24 2 15.5 2 8.25 6.82 4.5 14.5l7.44 5.82c1.8-4.5 5.99-7.82 12.06-7.82z"/>
</svg>