<svg xmlns="http://www.w3.org/2000/svg" viewBox="0 0 24 24" fill="currentColor"><path d="M20.447 20.452H17.616V13.849C17.616 12.298 17.583 10.298 15.483 10.298C13.359 10.298 13.039 11.979 13.039 13.749V20.452H10.21V10.867H13.039V12.18C13.437 11.442 14.406 10.156 15.807 10.156C18.584 10.156 18.616 12.436 18.616 14.105V20.452H20.447V20.452ZM7.447 9.002C6.425 9.002 5.599 8.176 5.599 7.154C5.599 6.132 6.425 5.306 7.447 5.306C8.469 5.306 9.295 6.132 9.295 7.154C9.295 8.176 8.469 9.002 7.447 9.002ZM8.857 20.452H6.026V10.867H8.857V20.452Z"/></svg>