<svg xmlns="http://www.w3.org/2000/svg" viewBox="0 0 1000 1000">
  <path fill="#E50914" d="M976.2 899.7c-2.9 4.8-7.8 7.9-13.4 7.9H36.8c-5.6 0-10.5-3.1-13.4-7.9-2.9-4.8-3.8-10.6-2.5-16.1L167.3 100h665.4l146.4 783.6c1.3 5.5.4 11.3-2.9 16.1z"/>
  <path fill="#221F1F" d="M167.3 100L0 883.6c-1.3 5.5-.4 11.3 2.5 16.1 2.9 4.8 7.8 7.9 13.4 7.9h926c5.6 0 10.5-3.1 13.4-7.9 2.9-4.8 3.8-10.6 2.5-16.1L832.7 100H167.3z"/>
  <path fill="#E50914" d="M167.3 100h665.4l-146.4 783.6c-1.3 5.5-.4 11.3 2.5 16.1 2.9 4.8 7.8 7.9 13.4 7.9h-60.7c-5.6 0-10.5-3.1-13.4-7.9L167.3 100z"/>
</svg>