<svg xmlns="http://www.w3.org/2000/svg" viewBox="0 0 167.6 167.6">
  <path fill="#1DB954" d="M83.8 0C37.5 0 0 37.5 0 83.8s37.5 83.8 83.8 83.8 83.8-37.5 83.8-83.8S130.1 0 83.8 0zm29.6 120.5c-1.8 3-5.7 4-8.7 2.2-24.4-14.9-60.7-18.2-73.3-20.1-3.2-.5-5.2-3.8-4.7-7s3.8-5.2 7-4.7c13.7 2.1 53.8 5.8 80.4 21.6 3 1.8 4 5.7 2.2 8.7zm10.7-22.9c-2.3 3.8-7.2 5.1-11 2.8-28.9-17.7-72.5-22.5-76.6-23.1-4.1-.6-8-3.1-8.6-7.2-.6-4.1 3.1-8 7.2-8.6 5.2-.8 53.5 4.7 86.4 24.7 3.8 2.3 5.1 7.2 2.8 11zm.3-23.8c-2.8 4.6-8.8 6.1-13.4 3.3-33.2-20.3-82.9-21.3-86.7-21.4-4.7-.1-8.6-3.9-8.7-8.7-.1-4.7 3.9-8.6 8.7-8.7 3.8 0 88.2 1.2 124.7 23.4 4.6 2.8 6.1 8.8 3.3 13.4z"/>
</svg>